<svg width="459" height="446" viewBox="0 0 459 446" fill="none" xmlns="http://www.w3.org/2000/svg">
<path d="M137.573 66.0475C156.608 80.45 169.174 102.599 175.272 132.495C181.371 162.39 178.484 187.691 166.611 208.399C154.911 229.071 135.865 242.099 109.472 247.483C83.2524 252.831 60.6251 248.304 41.5902 233.901C22.5554 219.499 9.98875 197.35 3.89044 167.454C-2.20788 137.559 0.679421 112.257 12.5523 91.5501C24.4253 70.8427 43.4715 57.8148 69.691 52.4664C95.9106 47.1179 118.538 51.645 137.573 66.0475ZM77.2377 191.869C83.9432 199.916 91.5502 203.071 100.059 201.336C108.567 199.6 114.33 193.717 117.348 183.687C120.331 173.484 120.174 160.299 116.876 144.135C113.579 127.971 108.56 115.778 101.819 107.558C95.0779 99.3378 87.4532 96.0955 78.9449 97.8311C70.4365 99.5667 64.691 105.536 61.7082 115.74C58.7254 125.944 58.8827 139.128 62.1801 155.292C65.4774 171.457 70.4966 183.649 77.2377 191.869ZM162.509 433.005L99.4778 445.863L204.544 216.14L296.998 13.7024L359.769 0.897949L257.754 224.296L162.509 433.005ZM454.931 277.221C461.064 307.29 458.195 332.679 446.322 353.386C434.449 374.093 415.403 387.121 389.183 392.47C362.964 397.818 340.337 393.291 321.302 378.888C302.231 364.312 289.647 342.076 283.549 312.181C277.45 282.285 280.338 256.984 292.211 236.276C304.083 215.569 323.13 202.541 349.349 197.193C375.569 191.844 398.196 196.371 417.231 210.774C436.266 225.176 448.832 247.325 454.931 277.221ZM356.896 336.596C363.601 344.642 371.208 347.798 379.717 346.062C388.225 344.326 393.988 338.444 397.007 328.414C399.989 318.21 399.832 305.026 396.535 288.861C393.237 272.697 388.218 260.505 381.477 252.284C374.736 244.064 367.111 240.822 358.603 242.557C350.095 244.293 344.349 250.263 341.366 260.466C338.384 270.67 338.541 283.854 341.838 300.019C345.136 316.183 350.155 328.375 356.896 336.596Z" fill="url(#paint0_linear_1_310)" fill-opacity="0.1"/>
<defs>
<linearGradient id="paint0_linear_1_310" x1="189.763" y1="27.9733" x2="269.112" y2="416.963" gradientUnits="userSpaceOnUse">
<stop offset="0.291667" stop-color="white"/>
<stop offset="0.833333" stop-color="white" stop-opacity="0.1"/>
<stop offset="1" stop-color="white" stop-opacity="0"/>
</linearGradient>
</defs>
</svg>
