<svg width="110" height="40" viewBox="0 0 110 40" fill="none" xmlns="http://www.w3.org/2000/svg">
<rect width="57.3404" height="39.7872" rx="19.8936" fill="#6EE97A" fill-opacity="0.1"/>
<path d="M13.5169 15.9789C12.5661 15.9789 11.7707 16.3081 11.1307 16.9663C10.4999 17.6154 10.1479 18.4519 10.0748 19.4759H16.8629C16.8264 18.4428 16.5018 17.6017 15.8893 16.9526C15.2768 16.3035 14.486 15.9789 13.5169 15.9789ZM16.8767 23.823H20.0719C19.8525 25.2035 19.1531 26.3234 17.9737 27.1828C16.7944 28.033 15.3499 28.4581 13.6403 28.4581C11.4644 28.4581 9.75483 27.7908 8.51148 26.456C7.26813 25.1121 6.64645 23.279 6.64645 20.9569C6.64645 18.6531 7.26356 16.8063 8.49776 15.4167C9.74111 14.0271 11.4096 13.3323 13.5032 13.3323C15.5602 13.3323 17.1921 13.9951 18.3988 15.3207C19.6056 16.6372 20.209 18.4016 20.209 20.6141V21.7249H10.0474V21.9306C10.0474 23.1008 10.3765 24.0424 11.0347 24.7555C11.7021 25.4686 12.5935 25.8252 13.7089 25.8252C14.4951 25.8252 15.1716 25.6469 15.7384 25.2903C16.3144 24.9247 16.6938 24.4355 16.8767 23.823ZM34.6635 18.8176H31.4409C31.2946 18.004 30.9472 17.3503 30.3986 16.8566C29.8501 16.3538 29.137 16.1024 28.2593 16.1024C27.1806 16.1024 26.3212 16.532 25.6812 17.3914C25.0413 18.2417 24.7213 19.4119 24.7213 20.9021C24.7213 22.4105 25.0413 23.5899 25.6812 24.4401C26.3212 25.2812 27.1897 25.7018 28.2868 25.7018C29.1461 25.7018 29.8501 25.4732 30.3986 25.0161C30.9472 24.5498 31.2992 23.9007 31.4546 23.0688H34.6772C34.5401 24.6961 33.8864 26.0034 32.7162 26.9908C31.5551 27.969 30.0649 28.4581 28.2456 28.4581C26.1063 28.4581 24.4059 27.7862 23.1442 26.4423C21.8826 25.0892 21.2518 23.2425 21.2518 20.9021C21.2518 18.5891 21.8826 16.7515 23.1442 15.3893C24.4059 14.0179 26.0972 13.3323 28.2182 13.3323C30.0832 13.3323 31.5917 13.8534 32.7436 14.8956C33.9047 15.9287 34.5447 17.236 34.6635 18.8176ZM47.7192 26.4423C46.4485 27.7862 44.7388 28.4581 42.5904 28.4581C40.442 28.4581 38.7324 27.7862 37.4616 26.4423C36.1908 25.0892 35.5554 23.2425 35.5554 20.9021C35.5554 18.5708 36.1954 16.7286 37.4753 15.3755C38.7552 14.0133 40.4603 13.3323 42.5904 13.3323C44.7297 13.3323 46.4347 14.0133 47.7055 15.3755C48.9854 16.7286 49.6254 18.5708 49.6254 20.9021C49.6254 23.2425 48.99 25.0892 47.7192 26.4423ZM39.9849 24.4813C40.6248 25.3315 41.4933 25.7566 42.5904 25.7566C43.6875 25.7566 44.556 25.3315 45.196 24.4813C45.8359 23.631 46.1559 22.438 46.1559 20.9021C46.1559 19.3753 45.8359 18.1868 45.196 17.3366C44.556 16.4772 43.6875 16.0475 42.5904 16.0475C41.5025 16.0475 40.634 16.4772 39.9849 17.3366C39.3449 18.1868 39.0249 19.3753 39.0249 20.9021C39.0249 22.438 39.3449 23.631 39.9849 24.4813Z" fill="#6EE97A"/>
<path d="M87.159 19.1358C87.159 20.3126 86.6552 21.3729 85.5519 22.4006C84.4069 23.4671 82.6977 24.4075 80.5851 25.1781C76.3636 26.7179 71.1604 27.3555 67.5757 27.3555C66.7143 27.3555 66.0983 27.3182 65.6618 27.2577C65.7007 27.0674 65.7537 26.8374 65.8233 26.5533C65.857 26.416 65.8947 26.2653 65.9351 26.1041C66.0409 25.6814 66.1648 25.1865 66.2809 24.6714C66.6125 23.2 66.9317 21.3578 66.9317 19.1358C66.9317 16.909 66.6113 15.1478 66.2672 13.7796C66.1428 13.2846 66.0136 12.8364 65.9035 12.4614C66.3477 12.4409 66.8962 12.4313 67.5757 12.4313C71.3011 12.4313 76.5313 12.7174 80.7564 13.9064C82.8755 14.5028 84.5479 15.2744 85.6493 16.1937C86.6812 17.055 87.159 17.9851 87.159 19.1358ZM65.575 11.2259C65.5753 11.2261 65.5764 11.2338 65.5771 11.2479C65.5751 11.2326 65.5747 11.2256 65.575 11.2259Z" fill="#6EE97A" stroke="#6EE97A" stroke-width="4.77273"/>
<path d="M91.8182 5.49951L91.9936 5.73756C98.1964 14.1556 98.1964 25.6313 91.9936 34.0493L91.8182 34.2874" stroke="#6EE97A" stroke-width="5.40909" stroke-linecap="round"/>
<path d="M102.805 14.2206C102.608 13.2362 103.373 12.3106 104.344 12.5649C104.677 12.6521 105.004 12.7621 105.324 12.8944C106.243 13.2751 107.078 13.8331 107.781 14.5366C108.485 15.2401 109.043 16.0752 109.424 16.9944C109.804 17.9135 110 18.8986 110 19.8935C110 20.8883 109.804 21.8735 109.424 22.7926C109.043 23.7117 108.485 24.5469 107.781 25.2504C107.078 25.9538 106.243 26.5119 105.324 26.8926C105.004 27.0249 104.677 27.1348 104.344 27.222C103.373 27.4764 102.608 26.5508 102.805 25.5663L102.941 24.8855C103.6 21.5901 103.6 18.1968 102.941 14.9014L102.805 14.2206Z" fill="#6EE97A"/>
</svg>
