<svg width="559" height="259" viewBox="0 0 559 259" fill="none" xmlns="http://www.w3.org/2000/svg">
<g filter="url(#filter0_bdddddd_1_216)">
<g clip-path="url(#clip0_1_216)">
<path d="M95.9045 30.7302C103.385 19.2812 120.528 10.4353 134.193 10.9722L198.036 13.4806C203.161 13.6819 205.041 17.3256 202.236 21.619L174.639 63.8556C171.834 68.149 165.405 71.4662 160.281 71.2649L80.9729 68.1489C75.8483 67.9475 73.968 64.3038 76.7733 60.0105L95.9045 30.7302Z" fill="white" fill-opacity="0.8"/>
<path d="M109.729 30.1565L114.958 22.1541L114.909 22.1522L110.755 23.777L111.975 21.9102L116.192 20.2527L118.65 20.3493L112.179 30.2528L109.729 30.1565ZM130.824 30.9853L128.62 30.8987L132.988 24.2141L132.922 24.2115L125.406 30.6739L123.849 30.6128L124.943 23.898L124.878 23.8954L120.51 30.5801L118.306 30.4935L124.777 20.59L127.644 20.7027L126.416 27.8556L126.481 27.8582L134.427 20.9692L137.294 21.0818L130.824 30.9853ZM132.626 31.0561L137.433 23.6989L139.825 23.7929L135.018 31.1501L132.626 31.0561ZM140.265 22.6698C139.887 22.8614 139.518 22.9502 139.158 22.936C138.798 22.9219 138.56 22.8093 138.446 22.5983C138.332 22.3873 138.369 22.1377 138.557 21.8495C138.749 21.5567 139.031 21.3167 139.406 21.1296C139.783 20.9379 140.152 20.8492 140.512 20.8634C140.873 20.8775 141.11 20.9901 141.224 21.2011C141.341 21.4075 141.304 21.6571 141.113 21.9499C140.925 22.2381 140.642 22.4781 140.265 22.6698ZM136.615 31.2129L141.422 23.8556L143.732 23.9464L142.876 25.2572L142.925 25.2592C143.47 24.8019 144.053 24.4588 144.673 24.2297C145.302 23.9963 145.949 23.8927 146.616 23.9189C147.588 23.9571 148.18 24.2291 148.393 24.7349C148.606 25.2407 148.43 25.926 147.865 26.7907L144.766 31.5331L142.374 31.4391L145.199 27.1154C145.516 26.6304 145.623 26.2521 145.521 25.9806C145.418 25.7091 145.102 25.5629 144.572 25.5421C144.042 25.5213 143.519 25.6532 143.003 25.938C142.491 26.2229 142.079 26.6056 141.765 27.086L139.007 31.3069L136.615 31.2129ZM159.199 24.5541L154.392 31.9113L152.082 31.8205L152.947 30.496L152.898 30.494C151.802 31.4506 150.607 31.9034 149.313 31.8526C148.352 31.8148 147.745 31.5399 147.491 31.0278C147.24 30.5111 147.393 29.8272 147.949 28.9762L151.048 24.2338L153.44 24.3278L150.615 28.6515C150.295 29.1411 150.191 29.5195 150.302 29.7866C150.418 30.054 150.741 30.1981 151.271 30.2189C151.801 30.2398 152.317 30.1099 152.82 29.8293C153.322 29.5487 153.734 29.1636 154.053 28.674L156.807 24.4601L159.199 24.5541ZM162.502 22.9451L164.894 23.0391L163.786 24.7343L165.408 24.798L164.422 26.3079L162.8 26.2442L160.499 29.765C160.138 30.3186 160.301 30.6089 160.989 30.6359C161.213 30.6447 161.414 30.6409 161.593 30.6245L160.629 32.1C160.314 32.144 159.917 32.1565 159.436 32.1377C158.404 32.0971 157.768 31.9126 157.529 31.5841C157.296 31.2558 157.414 30.7325 157.883 30.0141L160.408 26.1502L159.171 26.1016L160.157 24.5917L161.394 24.6403L162.502 22.9451ZM169.663 26.3238C169.144 26.3034 168.613 26.435 168.069 26.7187C167.53 27.0026 167.088 27.3747 166.743 27.8351L170.47 27.9816C170.751 27.5092 170.817 27.12 170.67 26.8139C170.528 26.5079 170.192 26.3446 169.663 26.3238ZM169.068 30.179L171.263 30.2653C170.66 30.9831 169.847 31.5495 168.825 31.9645C167.812 32.3752 166.765 32.5594 165.683 32.5169C164.334 32.4639 163.496 32.0837 163.169 31.3762C162.847 30.669 163.071 29.7252 163.842 28.5448C164.611 27.3689 165.606 26.4459 166.828 25.7759C168.053 25.1014 169.312 24.7895 170.607 24.8404C171.879 24.8904 172.674 25.2642 172.991 25.9618C173.308 26.6594 173.101 27.5687 172.368 28.6897L171.969 29.3005L165.915 29.0626L165.835 29.1862C165.491 29.7124 165.394 30.1473 165.545 30.4911C165.704 30.8306 166.087 31.0122 166.693 31.036C167.13 31.0532 167.561 30.9857 167.985 30.8334C168.412 30.6765 168.773 30.4584 169.068 30.179Z" fill="#4D5D65"/>
<path d="M96.087 59.2248L94.3412 59.1562L95.262 57.747C93.5091 57.5759 92.3466 57.0813 91.7746 56.2631C91.2072 55.4378 91.3216 54.4094 92.1176 53.1777L94.8191 53.2839C94.4592 53.9413 94.4286 54.4949 94.7273 54.9447C95.0259 55.3944 95.625 55.6844 96.5245 55.8146L99.8239 50.7649L98.8502 50.4748C97.6184 50.1198 96.848 49.5785 96.5391 48.851C96.2434 48.1167 96.4327 47.2335 97.107 46.2015C97.9022 44.9844 99.0414 44.0145 100.524 43.2917C102.012 42.5617 103.667 42.1632 105.488 42.096L106.458 40.6121L108.203 40.6807L107.234 42.1646C108.816 42.3436 109.853 42.8442 110.343 43.6665C110.848 44.482 110.735 45.4813 110.005 46.6645L107.342 46.5598C107.712 45.9539 107.769 45.4268 107.512 44.9788C107.261 44.5236 106.745 44.2332 105.964 44.1077L102.846 48.8798L103.885 49.1506C105.255 49.5475 106.101 50.1063 106.423 50.8271C106.75 51.5407 106.552 52.4491 105.832 53.5523C104.985 54.8477 103.792 55.8666 102.253 56.6091C100.713 57.3516 98.9674 57.7502 97.0147 57.8049L96.087 59.2248ZM102.991 53.6597C103.405 53.0262 103.48 52.5036 103.218 52.0918C102.969 51.6732 102.359 51.3463 101.388 51.1111L98.2494 55.9152C99.2929 55.9051 100.226 55.7045 101.047 55.3134C101.883 54.9155 102.53 54.3643 102.991 53.6597ZM99.9387 46.1485C99.562 46.725 99.4925 47.2114 99.7303 47.6076C99.9681 48.0039 100.492 48.3019 101.303 48.5016L104.219 44.0391C103.38 44.0426 102.556 44.2438 101.746 44.6427C100.941 45.0345 100.339 45.5364 99.9387 46.1485ZM118.703 56.697C116.532 58.0863 114.35 58.7379 112.159 58.6517C109.967 58.5656 108.714 57.7827 108.4 56.3031C108.099 54.8167 108.755 52.8386 110.369 50.3689C111.969 47.9206 113.86 46.0056 116.044 44.6241C118.232 43.2355 120.418 42.5841 122.601 42.6699C124.784 42.7556 126.029 43.5382 126.334 45.0175C126.644 46.4897 125.997 48.4535 124.393 50.909C122.779 53.3787 120.883 55.308 118.703 56.697ZM111.464 54.9343C111.493 56.0231 112.162 56.5933 113.47 56.6447C114.778 56.6961 116.136 56.2056 117.542 55.1731C118.962 54.1339 120.283 52.6784 121.506 50.8065C122.715 48.956 123.301 47.4862 123.263 46.397C123.239 45.301 122.581 44.7277 121.289 44.6769C119.998 44.6262 118.638 45.1203 117.21 46.1592C115.782 47.1981 114.466 48.6392 113.261 50.4826C112.038 52.3544 111.439 53.8383 111.464 54.9343ZM124.717 58.5539C124.218 58.8117 123.735 58.9314 123.267 58.913C122.8 58.8947 122.493 58.7439 122.347 58.4608C122.201 58.1776 122.256 57.8403 122.512 57.4489C122.768 57.0574 123.145 56.7328 123.645 56.475C124.144 56.2173 124.628 56.0976 125.095 56.1159C125.562 56.1343 125.869 56.285 126.015 56.5682C126.161 56.8513 126.106 57.1886 125.85 57.58C125.595 57.9715 125.217 58.2961 124.717 58.5539ZM131.372 59.111L139.889 46.0757L139.825 46.0732L133.152 48.7456L134.687 46.3969L141.412 43.7046L144.228 43.8153L134.163 59.2206L131.372 59.111ZM151.707 57.9937C149.536 59.383 147.355 60.0346 145.163 59.9485C142.971 59.8624 141.718 59.0795 141.404 57.5998C141.103 56.1134 141.759 54.1354 143.373 51.6657C144.973 49.2173 146.864 47.3024 149.048 45.9209C151.236 44.5322 153.422 43.8808 155.605 43.9666C157.788 44.0524 159.033 44.8349 159.338 46.3142C159.649 47.7864 159.002 49.7503 157.397 52.2057C155.784 54.6754 153.887 56.6048 151.707 57.9937ZM144.468 56.231C144.497 57.3199 145.166 57.89 146.474 57.9414C147.782 57.9928 149.14 57.5023 150.546 56.4699C151.966 55.4306 153.287 53.9751 154.51 52.1032C155.719 50.2527 156.305 48.7829 156.267 47.6937C156.243 46.5978 155.585 46.0244 154.294 45.9737C153.002 45.9229 151.643 46.417 150.215 47.4559C148.786 48.4948 147.47 49.9359 146.266 51.7793C145.043 53.6512 144.443 55.1351 144.468 56.231Z" fill="#001723"/>
</g>
</g>
<g filter="url(#filter1_bdddddd_1_216)">
<g clip-path="url(#clip1_1_216)">
<rect width="103.538" height="86.7481" rx="9.28612" transform="matrix(0.999229 0.0392598 -0.546979 0.837146 216.636 14.2114)" fill="white" fill-opacity="0.8"/>
<path d="M218.91 33.7847C218.036 33.7504 217.379 33.5392 216.938 33.1511C216.502 32.7633 216.309 32.2277 216.358 31.5445C216.389 30.7338 216.782 29.7497 217.539 28.5921C218.621 26.9358 219.883 25.6597 221.326 24.7637C222.771 23.8632 224.234 23.442 225.714 23.5001C226.757 23.5411 227.493 23.8164 227.922 24.326C228.356 24.8358 228.405 25.49 228.068 26.2887L226.233 26.2166C226.357 25.8038 226.293 25.4681 226.042 25.2095C225.791 24.9509 225.395 24.811 224.855 24.7897C223.921 24.7531 222.974 25.0655 222.015 25.7271C221.06 26.384 220.172 27.3347 219.354 28.579L219.387 28.5803C219.966 28.1056 220.643 27.7333 221.419 27.4634C222.194 27.1936 222.948 27.073 223.68 27.1018C224.805 27.146 225.536 27.4938 225.872 28.1452C226.213 28.7969 226.078 29.5917 225.465 30.5296C224.816 31.5225 223.874 32.3255 222.639 32.9387C221.404 33.5518 220.161 33.8338 218.91 33.7847ZM219.741 32.4869C220.44 32.5144 221.164 32.3364 221.914 31.9528C222.663 31.5693 223.227 31.087 223.607 30.5059C223.998 29.9065 224.086 29.4032 223.871 28.9958C223.661 28.5886 223.192 28.3708 222.466 28.3423C221.745 28.3139 221.017 28.4848 220.283 28.8548C219.556 29.2205 219.002 29.6961 218.619 30.2818C218.234 30.872 218.148 31.3802 218.363 31.8063C218.577 32.2324 219.037 32.4593 219.741 32.4869ZM233.304 32.9213C231.909 33.8144 230.506 34.2333 229.097 34.1779C227.688 34.1226 226.883 33.6193 226.681 32.6681C226.487 31.7125 226.909 30.4409 227.947 28.8532C228.975 27.2793 230.191 26.0483 231.595 25.1602C233.001 24.2675 234.407 23.8487 235.81 23.9038C237.214 23.959 238.014 24.4621 238.21 25.413C238.409 26.3594 237.994 27.6219 236.962 29.2004C235.925 30.7881 234.705 32.0284 233.304 32.9213ZM228.65 31.7881C228.669 32.4881 229.099 32.8546 229.94 32.8876C230.781 32.9207 231.654 32.6054 232.558 31.9416C233.471 31.2736 234.32 30.3379 235.106 29.1345C235.884 27.9449 236.26 27 236.236 26.2999C236.22 25.5953 235.797 25.2267 234.967 25.1941C234.137 25.1615 233.263 25.4791 232.345 26.147C231.427 26.8148 230.58 27.7413 229.806 28.9263C229.02 30.1296 228.635 31.0836 228.65 31.7881ZM250.902 34.8446L249.223 34.7786L253.985 27.49L253.928 27.4877L245.651 34.5608L244.291 34.5074L245.433 27.154L245.375 27.1517L240.613 34.4403L238.942 34.3747L245.413 24.4712L247.534 24.5546L246.253 32.5219L246.318 32.5245L255.243 24.8574L257.373 24.9411L250.902 34.8446ZM252.926 34.9241L257.643 27.7041L259.412 27.7736L254.695 34.9936L252.926 34.9241ZM260.109 26.4635C259.799 26.6203 259.502 26.6931 259.218 26.6819C258.934 26.6708 258.745 26.5789 258.651 26.4062C258.562 26.2338 258.593 26.0309 258.746 25.7975C258.901 25.5596 259.131 25.3622 259.435 25.2052C259.745 25.0484 260.042 24.9756 260.326 24.9867C260.615 24.9981 260.805 25.09 260.894 25.2625C260.988 25.4351 260.957 25.6404 260.802 25.8783C260.65 26.1117 260.418 26.3067 260.109 26.4635ZM256.505 35.0647L261.223 27.8447L262.91 27.911L262.121 29.1189L262.162 29.1206C262.677 28.7091 263.241 28.3957 263.852 28.1803C264.463 27.965 265.094 27.8701 265.744 27.8957C266.688 27.9328 267.267 28.1996 267.481 28.696C267.697 29.1879 267.533 29.8502 266.989 30.6829L263.935 35.3567L262.158 35.2868L265.023 30.9013C265.382 30.3522 265.498 29.9298 265.372 29.6339C265.255 29.3336 264.893 29.1715 264.287 29.1477C263.664 29.1233 263.057 29.273 262.464 29.597C261.872 29.921 261.391 30.3644 261.024 30.9272L258.275 35.1342L256.505 35.0647ZM277.754 28.4943L273.037 35.7142L271.341 35.6476L272.139 34.426L272.098 34.4244C271.012 35.3062 269.828 35.7219 268.544 35.6715C267.605 35.6346 267.02 35.3676 266.791 34.8705C266.569 34.369 266.729 33.7042 267.27 32.8761L270.324 28.2023L272.093 28.2718L269.228 32.6574C268.866 33.211 268.747 33.638 268.87 33.9385C268.996 34.2344 269.362 34.3943 269.968 34.4181C270.602 34.443 271.212 34.2934 271.799 33.9691C272.386 33.6449 272.865 33.1992 273.236 32.6318L275.985 28.4247L277.754 28.4943ZM281.14 26.8745L282.917 26.9443L281.801 28.6533L283.439 28.7176L282.672 29.8912L281.034 29.8268L278.433 33.8074C278.23 34.1186 278.165 34.3507 278.239 34.5037C278.312 34.6568 278.529 34.7404 278.89 34.7546C279.152 34.7649 279.353 34.7611 279.494 34.7431L278.727 35.9167C278.479 35.9539 278.136 35.9639 277.699 35.9467C276.831 35.9126 276.305 35.7394 276.123 35.4272C275.949 35.1107 276.091 34.6024 276.548 33.9023L279.256 29.757L278.003 29.7078L278.77 28.5342L280.023 28.5834L281.14 26.8745ZM288.752 30.5524C288.592 30.1895 288.205 29.996 287.594 29.9719C286.982 29.9479 286.359 30.1041 285.725 30.4405C285.093 30.7724 284.575 31.2143 284.17 31.7662L288.479 31.9355C288.821 31.3764 288.913 30.9154 288.752 30.5524ZM287.062 34.0902L288.742 34.1562C288.183 34.8147 287.424 35.341 286.467 35.7351C285.509 36.1292 284.538 36.3069 283.555 36.2683C282.294 36.2187 281.517 35.848 281.224 35.156C280.939 34.4597 281.171 33.5396 281.918 32.3957C282.66 31.261 283.617 30.3624 284.789 29.6998C285.967 29.0375 287.162 28.7301 288.374 28.7778C289.565 28.8245 290.296 29.1888 290.567 29.8706C290.842 30.5477 290.62 31.4354 289.903 32.5335L289.571 33.0413L283.484 32.8022L283.426 32.8914C283.014 33.5228 282.893 34.0367 283.066 34.4329C283.238 34.8292 283.677 35.0412 284.381 35.0689C284.878 35.0884 285.367 35.0091 285.847 34.8308C286.328 34.6526 286.733 34.4057 287.062 34.0902ZM216.535 41.291L209.108 48.658L207.371 48.5897L210.656 38.5611L212.564 38.636L209.684 46.4773L209.75 46.4799L217.316 38.8227L219.02 38.8897L216.459 46.7435L216.525 46.746L223.779 39.0767L225.688 39.1517L216.022 48.9296L214.294 48.8617L216.617 41.2942L216.535 41.291ZM220.519 49.1063L225.237 41.8863L227.006 41.9558L222.289 49.1758L220.519 49.1063ZM227.703 40.6457C227.393 40.8025 227.096 40.8753 226.812 40.8642C226.528 40.853 226.339 40.7611 226.245 40.5884C226.156 40.416 226.187 40.2131 226.34 39.9798C226.495 39.7418 226.725 39.5444 227.029 39.3874C227.339 39.2306 227.636 39.1578 227.92 39.169C228.209 39.1803 228.398 39.2722 228.487 39.4447C228.582 39.6173 228.551 39.8226 228.396 40.0606C228.243 40.2939 228.012 40.489 227.703 40.6457ZM230.449 40.3383L232.227 40.4082L231.11 42.1171L232.749 42.1815L231.982 43.3551L230.344 43.2907L227.743 47.2713C227.54 47.5824 227.475 47.8145 227.548 47.9676C227.622 48.1206 227.839 48.2042 228.199 48.2184C228.462 48.2287 228.663 48.2249 228.803 48.2069L228.037 49.3805C227.788 49.4177 227.446 49.4277 227.009 49.4105C226.14 49.3764 225.615 49.2033 225.433 48.8911C225.258 48.5745 225.4 48.0662 225.858 47.3662L228.566 43.2208L227.313 43.1716L228.079 41.998L229.333 42.0472L230.449 40.3383ZM229.555 49.4613L236.026 39.5579L237.779 39.6267L235.236 43.5181L235.277 43.5197C235.796 43.1037 236.362 42.7903 236.975 42.5798C237.592 42.3647 238.225 42.2699 238.875 42.2955C239.815 42.3324 240.393 42.6038 240.612 43.1099C240.835 43.6161 240.678 44.281 240.14 45.1046L237.1 49.7578L235.322 49.6879L238.174 45.323C238.527 44.7831 238.639 44.3581 238.511 44.048C238.389 43.7382 238.019 43.5711 237.402 43.5469C236.752 43.5214 236.123 43.6749 235.513 44.0077C234.912 44.336 234.425 44.7861 234.051 45.3581L231.325 49.5308L229.555 49.4613ZM248.904 40.0638L253.335 40.2379C254.482 40.283 255.219 40.6217 255.545 41.254C255.877 41.8864 255.729 42.6831 255.101 43.6439C254.47 44.6094 253.587 45.3818 252.452 45.9614C251.326 46.5366 250.181 46.8013 249.018 46.7556L246.478 46.6559L244.268 50.0394L242.433 49.9673L248.904 40.0638ZM249.891 41.433L247.322 45.3656L249.427 45.4483C250.224 45.4796 250.953 45.3323 251.615 45.0063C252.276 44.6803 252.811 44.2039 253.221 43.5771C253.627 42.9548 253.724 42.4636 253.511 42.1032C253.304 41.7431 252.802 41.5474 252.005 41.5161L249.891 41.433ZM255.161 49.3904C255.784 49.4148 256.408 49.2775 257.035 48.9783C257.67 48.6747 258.14 48.2896 258.445 47.8229L258.817 47.2533L256.624 47.2797C256.073 47.291 255.592 47.3847 255.18 47.5609C254.776 47.7328 254.473 47.9742 254.27 48.2854C254.063 48.6011 254.04 48.8606 254.198 49.0639C254.365 49.2629 254.686 49.3717 255.161 49.3904ZM253.903 50.5446C253.056 50.5114 252.497 50.2829 252.225 49.8593C251.958 49.4358 252.035 48.9015 252.457 48.2564C252.87 47.625 253.475 47.1349 254.275 46.7862C255.077 46.4329 256.003 46.2534 257.055 46.2478L259.49 46.2238L259.853 45.6679C260.116 45.2653 260.168 44.9459 260.009 44.7096C259.853 44.4689 259.504 44.3378 258.963 44.3166C258.461 44.2969 257.99 44.3746 257.551 44.5497C257.117 44.7251 256.751 44.9759 256.454 45.3021L254.783 45.2364C255.269 44.5703 255.968 44.0394 256.882 43.6435C257.796 43.2477 258.775 43.0703 259.818 43.1113C260.861 43.1523 261.551 43.3999 261.887 43.8542C262.229 44.3088 262.163 44.8975 261.691 45.6204L258.44 50.5962L256.744 50.5296L257.52 49.3423L257.479 49.3406C256.973 49.729 256.391 50.0323 255.733 50.2505C255.081 50.4689 254.471 50.567 253.903 50.5446ZM263.386 45.4829C263.807 44.8378 264.461 44.3261 265.346 43.9479C266.232 43.5698 267.177 43.4004 268.182 43.4399C269.138 43.4774 269.788 43.7118 270.134 44.1431C270.488 44.57 270.468 45.1065 270.074 45.7527L268.411 45.6874C268.582 45.3562 268.579 45.091 268.401 44.8916C268.224 44.6922 267.889 44.5828 267.398 44.5635C266.917 44.5446 266.471 44.6186 266.059 44.7855C265.653 44.9525 265.358 45.1779 265.172 45.4616C264.885 45.9008 265.122 46.2292 265.881 46.4468L267.147 46.7851C267.902 46.9931 268.361 47.2552 268.524 47.5713C268.696 47.8831 268.607 48.3066 268.257 48.842C267.826 49.5008 267.144 50.0231 266.208 50.4087C265.278 50.7945 264.284 50.9666 263.224 50.925C262.214 50.8853 261.521 50.6516 261.145 50.2238C260.774 49.7963 260.772 49.2471 261.137 48.5763L262.891 48.6452C262.734 48.9957 262.753 49.271 262.947 49.471C263.145 49.6665 263.511 49.7747 264.046 49.7958C264.576 49.8166 265.049 49.7484 265.465 49.5911C265.89 49.4294 266.198 49.2022 266.39 48.9094C266.542 48.676 266.57 48.4871 266.474 48.3425C266.378 48.198 266.138 48.0689 265.753 47.9552L264.419 47.579C263.063 47.2019 262.719 46.5032 263.386 45.4829ZM271.495 45.8015C271.917 45.1564 272.571 44.6447 273.456 44.2666C274.342 43.8884 275.287 43.7191 276.292 43.7585C277.248 43.7961 277.898 44.0305 278.244 44.4617C278.598 44.8886 278.578 45.4251 278.184 46.0714L276.521 46.006C276.692 45.6749 276.689 45.4096 276.511 45.2102C276.334 45.0108 275.999 44.9015 275.507 44.8822C275.027 44.8633 274.581 44.9373 274.169 45.1041C273.763 45.2712 273.468 45.4965 273.282 45.7802C272.995 46.2195 273.232 46.5479 273.991 46.7654L275.257 47.1038C276.012 47.3118 276.471 47.5738 276.634 47.89C276.806 48.2017 276.717 48.6253 276.367 49.1606C275.936 49.8195 275.254 50.3417 274.318 50.7273C273.388 51.1131 272.394 51.2852 271.334 51.2436C270.324 51.2039 269.631 50.9702 269.255 50.5425C268.884 50.1149 268.882 49.5658 269.247 48.895L271 48.9638C270.844 49.3144 270.863 49.5896 271.057 49.7897C271.255 49.9851 271.621 50.0934 272.156 50.1144C272.686 50.1352 273.159 50.067 273.575 49.9097C274 49.7481 274.308 49.5209 274.5 49.228C274.652 48.9947 274.68 48.8057 274.584 48.6612C274.488 48.5166 274.248 48.3875 273.863 48.2738L272.529 47.8976C271.173 47.5205 270.829 46.8218 271.495 45.8015Z" fill="#4D5D65"/>
<path d="M194.522 76.8305L192.776 76.7619L193.697 75.3527C191.944 75.1816 190.781 74.687 190.209 73.8688C189.642 73.0435 189.756 72.0151 190.552 70.7834L193.254 70.8896C192.894 71.547 192.863 72.1006 193.162 72.5504C193.461 73.0001 194.06 73.2901 194.959 73.4203L198.259 68.3706L197.285 68.0805C196.053 67.7255 195.283 67.1842 194.974 66.4567C194.678 65.7224 194.867 64.8392 195.542 63.8072C196.337 62.5902 197.476 61.6202 198.959 60.8974C200.447 60.1674 202.101 59.7689 203.923 59.7018L204.892 58.2178L206.638 58.2864L205.669 59.7703C207.251 59.9493 208.287 60.4499 208.778 61.2722C209.282 62.0877 209.17 63.0871 208.44 64.2702L205.777 64.1656C206.147 63.5596 206.203 63.0326 205.947 62.5845C205.696 62.1293 205.18 61.8389 204.399 61.7134L201.281 66.4855L202.32 66.7563C203.69 67.1532 204.536 67.712 204.858 68.4328C205.184 69.1464 204.987 70.0548 204.266 71.158C203.42 72.4534 202.227 73.4723 200.688 74.2148C199.148 74.9573 197.402 75.3559 195.449 75.4106L194.522 76.8305ZM201.425 71.2654C201.839 70.632 201.915 70.1093 201.653 69.6975C201.403 69.2789 200.793 68.952 199.823 68.7168L196.684 73.521C197.728 73.5109 198.66 73.3103 199.482 72.9191C200.317 72.5213 200.965 71.97 201.425 71.2654ZM198.373 63.7542C197.997 64.3307 197.927 64.8171 198.165 65.2133C198.403 65.6096 198.927 65.9076 199.737 66.1073L202.653 61.6448C201.814 61.6483 200.99 61.8495 200.181 62.2484C199.376 62.6402 198.773 63.1421 198.373 63.7542ZM210.479 76.253C208.644 76.1809 207.395 75.6975 206.734 74.8028C206.077 73.901 206.146 72.7758 206.94 71.4273L209.667 71.5344C209.271 72.3 209.27 72.9351 209.664 73.4396C210.066 73.9445 210.781 74.2172 211.809 74.2576C212.964 74.3029 214.107 74.034 215.237 73.4506C216.368 72.8672 217.249 72.0915 217.882 71.1236C218.514 70.1556 218.667 69.3477 218.341 68.6998C218.029 68.0451 217.299 67.6952 216.152 67.6501C215.353 67.6188 214.532 67.7361 213.687 68.0022C212.855 68.2616 212.096 68.6369 211.409 69.1282L208.797 69.0256L215.457 60.352L226.403 60.7821L225.085 62.7999L216.432 62.4599L212.833 67.1693L212.896 67.1718C213.625 66.6968 214.434 66.338 215.325 66.0956C216.228 65.8464 217.126 65.7393 218.018 65.7744C219.785 65.8438 220.919 66.3884 221.42 67.4082C221.926 68.4209 221.691 69.6745 220.714 71.1692C219.682 72.7492 218.212 74.0127 216.303 74.9598C214.408 75.9 212.467 76.3311 210.479 76.253ZM223.05 76.1556C222.551 76.4134 222.067 76.5331 221.6 76.5147C221.133 76.4964 220.826 76.3456 220.68 76.0625C220.534 75.7793 220.589 75.442 220.845 75.0506C221.1 74.6591 221.478 74.3345 221.978 74.0767C222.477 73.819 222.96 73.6993 223.428 73.7176C223.895 73.736 224.202 73.8867 224.348 74.1699C224.494 74.453 224.439 74.7903 224.183 75.1818C223.927 75.5732 223.55 75.8978 223.05 76.1556ZM239.438 75.1789C237.267 76.5682 235.085 77.2197 232.893 77.1336C230.702 77.0475 229.449 76.2646 229.135 74.785C228.834 73.2986 229.49 71.3205 231.104 68.8508C232.703 66.4025 234.595 64.4875 236.779 63.106C238.967 61.7174 241.153 61.066 243.336 61.1517C245.519 61.2375 246.764 62.0201 247.069 63.4994C247.379 64.9716 246.732 66.9354 245.128 69.3909C243.514 71.8606 241.618 73.7899 239.438 75.1789ZM232.199 73.4162C232.228 74.505 232.897 75.0752 234.205 75.1266C235.513 75.178 236.871 74.6874 238.277 73.655C239.697 72.6158 241.018 71.1602 242.241 69.2884C243.45 67.4379 244.036 65.9681 243.998 64.8789C243.974 63.7829 243.316 63.2096 242.024 63.1588C240.733 63.1081 239.373 63.6022 237.945 64.6411C236.517 65.6799 235.201 67.1211 233.996 68.9645C232.773 70.8363 232.174 72.3202 232.199 73.4162ZM255.698 75.8177C253.527 77.207 251.345 77.8586 249.153 77.7725C246.962 77.6864 245.709 76.9035 245.395 75.4239C245.094 73.9374 245.75 71.9594 247.364 69.4897C248.963 67.0413 250.855 65.1264 253.039 63.7449C255.227 62.3562 257.413 61.7048 259.596 61.7906C261.779 61.8764 263.024 62.6589 263.329 64.1382C263.639 65.6104 262.992 67.5743 261.388 70.0297C259.774 72.4994 257.878 74.4288 255.698 75.8177ZM248.459 74.055C248.488 75.1439 249.157 75.714 250.465 75.7654C251.773 75.8168 253.131 75.3263 254.537 74.2939C255.957 73.2546 257.278 71.7991 258.501 69.9272C259.71 68.0768 260.296 66.6069 260.258 65.5177C260.234 64.4218 259.576 63.8484 258.284 63.7977C256.993 63.7469 255.633 64.241 254.205 65.2799C252.777 66.3188 251.461 67.7599 250.256 69.6033C249.033 71.4752 248.434 72.9591 248.459 74.055Z" fill="#001723"/>
</g>
</g>
<g filter="url(#filter2_bdddd_1_216)">
<g clip-path="url(#clip2_1_216)">
<path d="M324.335 26.4163C327.14 22.1229 333.569 18.8057 338.693 19.007L439.819 22.9802C453.484 23.5172 458.498 33.2337 451.018 44.6827L422.192 88.7994C419.387 93.0928 412.959 96.41 407.834 96.2087L287.473 91.4797C284.431 91.3602 283.315 89.1973 284.98 86.6489L324.335 26.4163Z" fill="#2CBA4B"/>
<path d="M329.603 37.9367L327.489 37.8537L333.96 27.9502L341.496 28.2463L340.519 29.7425L335.096 29.5294L333.185 32.4531L338.142 32.6478L337.2 34.0891L332.244 33.8944L329.603 37.9367ZM336.41 38.2042L341.163 30.9293L343.203 31.0094L338.45 38.2843L336.41 38.2042ZM343.78 29.7791C343.445 29.949 343.119 30.0277 342.802 30.0152C342.486 30.0028 342.276 29.9031 342.174 29.716C342.076 29.5244 342.11 29.3005 342.277 29.0443C342.448 28.7835 342.7 28.5682 343.035 28.3983C343.373 28.2239 343.701 28.1429 344.018 28.1553C344.334 28.1678 344.542 28.2698 344.641 28.4614C344.748 28.6486 344.717 28.8727 344.546 29.1335C344.379 29.3897 344.124 29.6049 343.78 29.7791ZM345.257 35.8769L345.216 35.8753L341.71 38.4124L339.539 38.3271L344.713 34.8066L344.317 31.0532L346.611 31.1433L346.696 33.7653L346.737 33.7669L350.133 31.2817L352.37 31.3696L347.227 34.8561L347.584 38.6432L345.356 38.5557L345.257 35.8769ZM358.699 28.9222L363.295 29.1028C364.475 29.1492 365.233 29.4934 365.569 30.1354C365.909 30.7729 365.756 31.5858 365.11 32.5741C364.468 33.5578 363.566 34.3413 362.407 34.9246C361.252 35.5081 360.075 35.7762 358.873 35.729L356.481 35.635L354.342 38.9087L352.229 38.8257L358.699 28.9222ZM359.867 30.4534L357.414 34.2075L359.331 34.2828C360.09 34.3127 360.787 34.1711 361.423 33.8582C362.059 33.5453 362.572 33.0892 362.964 32.4898C363.353 31.895 363.443 31.4269 363.235 31.0855C363.032 30.7444 362.551 30.5589 361.792 30.529L359.867 30.4534ZM362.149 39.2155L366.902 31.9406L368.86 32.0175L368.03 33.2872L368.071 33.2888C368.509 32.8508 368.987 32.5176 369.506 32.2893C370.03 32.0611 370.549 31.9572 371.063 31.9773C371.243 31.9844 371.441 32.0157 371.657 32.0711L370.648 33.6153C370.487 33.5433 370.233 33.5004 369.883 33.4867C369.304 33.4639 368.755 33.5925 368.236 33.8725C367.717 34.1524 367.29 34.5486 366.955 35.0611L364.189 39.2956L362.149 39.2155ZM367.965 39.444L372.718 32.1691L374.758 32.2492L370.005 39.5241L367.965 39.444ZM375.335 31.0189C375 31.1888 374.674 31.2675 374.358 31.255C374.041 31.2426 373.832 31.1429 373.73 30.9558C373.631 30.7642 373.665 30.5403 373.832 30.2841C374.003 30.0233 374.256 29.808 374.591 29.6381C374.929 29.4637 375.256 29.3827 375.573 29.3951C375.89 29.4076 376.097 29.5096 376.196 29.7012C376.304 29.8884 376.272 30.1125 376.102 30.3733C375.934 30.6295 375.679 30.8447 375.335 31.0189ZM382.427 35.2114L380.501 35.1358C380.68 34.7251 380.686 34.3898 380.52 34.1299C380.357 33.8653 380.013 33.7228 379.489 33.7022C378.844 33.6769 378.191 33.8717 377.527 34.2868C376.867 34.6973 376.293 35.2754 375.806 36.0212C375.313 36.7762 375.118 37.3739 375.222 37.8144C375.33 38.2504 375.711 38.4813 376.366 38.507C376.88 38.5272 377.375 38.4293 377.852 38.2134C378.332 37.9929 378.755 37.6764 379.12 37.2636L381.045 37.3393C380.431 38.1505 379.613 38.7894 378.591 39.2561C377.577 39.7184 376.527 39.9282 375.44 39.8855C374.162 39.8353 373.366 39.4591 373.052 38.7569C372.741 38.0501 372.968 37.1111 373.733 35.9398C374.49 34.7822 375.467 33.8774 376.666 33.2253C377.868 32.5686 379.103 32.2651 380.37 32.3149C381.484 32.3586 382.215 32.6548 382.562 33.2035C382.918 33.7478 382.873 34.4171 382.427 35.2114ZM388.327 33.9861C387.759 33.9638 387.177 34.1098 386.579 34.4242C385.99 34.7343 385.506 35.1447 385.128 35.6554L389.183 35.8147C389.499 35.2968 389.58 34.8683 389.426 34.5291C389.272 34.1898 388.906 34.0088 388.327 33.9861ZM387.769 37.9906L389.678 38.0656C389.096 38.7514 388.312 39.2955 387.326 39.6979C386.343 40.0957 385.342 40.2745 384.32 40.2344C383.021 40.1834 382.218 39.8092 381.911 39.112C381.608 38.4103 381.836 37.4783 382.595 36.3162C383.349 35.1631 384.321 34.2534 385.513 33.5869C386.71 32.9206 387.934 32.6121 389.185 32.6612C390.413 32.7095 391.171 33.0795 391.459 33.7712C391.749 34.4584 391.533 35.3556 390.809 36.4629L390.446 37.0188L384.376 36.7803L384.309 36.8833C383.926 37.4689 383.815 37.9479 383.975 38.3202C384.14 38.6928 384.556 38.8921 385.222 38.9183C385.692 38.9368 386.154 38.8634 386.61 38.6983C387.073 38.5288 387.46 38.2929 387.769 37.9906ZM329.214 46.0279L322.116 53.0981L320.126 53.0198L323.426 42.9918L325.621 43.0781L322.768 50.6599L322.834 50.6625L330.111 43.2545L331.978 43.3278L329.453 50.9226L329.518 50.9251L336.468 43.5042L338.663 43.5905L329.022 53.3694L327.031 53.2912L329.296 46.0311L329.214 46.0279ZM333.429 53.5425L338.182 46.2677L340.222 46.3478L335.469 53.6227L333.429 53.5425ZM340.799 45.1175C340.464 45.2873 340.138 45.366 339.822 45.3536C339.505 45.3411 339.296 45.2414 339.194 45.0544C339.095 44.8628 339.129 44.6389 339.296 44.3827C339.467 44.1219 339.72 43.9065 340.055 43.7367C340.393 43.5622 340.72 43.4812 341.037 43.4937C341.354 43.5061 341.561 43.6082 341.66 43.7998C341.768 43.987 341.736 44.211 341.566 44.4718C341.398 44.728 341.143 44.9433 340.799 45.1175ZM343.612 44.7352L345.651 44.8154L344.539 46.5174L346.178 46.5818L345.317 47.8995L343.678 47.8351L341.208 51.6167C341.013 51.9141 340.954 52.1371 341.031 52.2855C341.108 52.434 341.326 52.5154 341.687 52.5295C341.927 52.539 342.128 52.5351 342.291 52.5181L341.439 53.822C341.163 53.8581 340.796 53.8672 340.337 53.8492C339.398 53.8122 338.825 53.6349 338.618 53.317C338.416 52.9994 338.547 52.486 339.011 51.7768L341.639 47.755L340.393 47.7061L341.254 46.3884L342.5 46.4373L343.612 44.7352ZM342.874 53.9137L349.345 44.0102L351.36 44.0894L348.827 47.967L348.868 47.9686C349.393 47.534 349.968 47.207 350.593 46.9875C351.221 46.7635 351.863 46.6644 352.518 46.6901C353.468 46.7274 354.051 47.0014 354.266 47.512C354.49 48.0182 354.327 48.6923 353.777 49.5342L350.714 54.2217L348.674 54.1415L351.508 49.804C351.846 49.287 351.955 48.8807 351.834 48.585C351.719 48.2895 351.37 48.1303 350.785 48.1073C350.174 48.0833 349.584 48.2267 349.017 48.5376C348.455 48.8488 347.998 49.2743 347.645 49.8142L344.914 53.9938L342.874 53.9137ZM362.387 44.5226L366.982 44.7032C368.162 44.7495 368.92 45.0937 369.257 45.7358C369.596 46.3733 369.443 47.1862 368.798 48.1745C368.155 49.1582 367.254 49.9417 366.094 50.5249C364.94 51.1084 363.762 51.3766 362.56 51.3294L360.168 51.2354L358.029 54.5091L355.916 54.4261L362.387 44.5226ZM363.554 46.0537L361.101 49.8079L363.018 49.8832C363.777 49.913 364.475 49.7715 365.11 49.4586C365.746 49.1457 366.26 48.6895 366.651 48.0901C367.04 47.4953 367.13 47.0272 366.922 46.6859C366.719 46.3447 366.238 46.1592 365.479 46.1294L363.554 46.0537ZM369.134 53.7417C369.719 53.7646 370.304 53.6398 370.891 53.3672C371.487 53.0903 371.927 52.7345 372.211 52.2998L372.574 51.7439L370.5 51.768C369.99 51.7762 369.541 51.8641 369.151 52.0318C368.77 52.1951 368.485 52.4209 368.297 52.7092C368.102 53.0066 368.081 53.2498 368.232 53.4387C368.391 53.6233 368.692 53.7243 369.134 53.7417ZM367.677 55.0078C366.83 54.9746 366.267 54.7436 365.987 54.3149C365.713 53.8865 365.787 53.3474 366.212 52.6977C366.634 52.0525 367.251 51.5535 368.064 51.2007C368.883 50.848 369.839 50.6651 370.935 50.6518L373.3 50.6321L373.641 50.1105C373.889 49.7307 373.937 49.4299 373.785 49.2081C373.639 48.9865 373.312 48.8657 372.804 48.8457C372.329 48.8271 371.883 48.901 371.466 49.0677C371.049 49.2343 370.707 49.4696 370.442 49.7736L368.549 49.6993C369.044 49.0101 369.763 48.4634 370.705 48.0593C371.655 47.6508 372.673 47.4679 373.76 47.5106C374.836 47.5529 375.553 47.8063 375.91 48.2709C376.273 48.7357 376.215 49.3341 375.737 50.0661L372.464 55.0762L370.497 54.999L371.255 53.8391L371.214 53.8375C370.715 54.2167 370.14 54.5133 369.49 54.7271C368.844 54.9363 368.239 55.0299 367.677 55.0078ZM377.345 49.9463C377.781 49.2783 378.456 48.751 379.369 48.3646C380.283 47.9781 381.267 47.8056 382.321 47.847C383.337 47.8869 384.024 48.1298 384.382 48.5756C384.749 49.0171 384.726 49.5746 384.314 50.2483L382.414 50.1736C382.587 49.8566 382.59 49.6033 382.423 49.4137C382.256 49.2241 381.934 49.12 381.459 49.1013C381.011 49.0837 380.597 49.1519 380.216 49.3059C379.839 49.4553 379.563 49.6627 379.39 49.9281C379.127 50.3307 379.355 50.633 380.074 50.8349L381.434 51.184C382.192 51.3874 382.656 51.6497 382.828 51.9708C382.999 52.2919 382.908 52.7225 382.555 53.2624C382.107 53.9487 381.399 54.4911 380.433 54.8895C379.47 55.2834 378.44 55.4588 377.342 55.4157C376.261 55.3732 375.524 55.1331 375.132 54.6954C374.749 54.2532 374.749 53.6831 375.132 52.9848L377.139 53.0637C376.981 53.4 376.994 53.6633 377.178 53.8536C377.367 54.044 377.718 54.1493 378.232 54.1695C378.729 54.189 379.17 54.1266 379.556 53.9822C379.95 53.8334 380.235 53.6241 380.411 53.3541C380.549 53.1437 380.568 52.9731 380.468 52.8425C380.377 52.7075 380.151 52.586 379.791 52.478L378.411 52.107C377.007 51.728 376.651 51.0078 377.345 49.9463ZM385.684 50.2739C386.12 49.6059 386.795 49.0787 387.709 48.6922C388.622 48.3058 389.606 48.1332 390.66 48.1746C391.676 48.2146 392.363 48.4574 392.722 48.9032C393.088 49.3447 393.066 49.9023 392.654 50.5759L390.753 50.5013C390.927 50.1843 390.93 49.931 390.762 49.7414C390.595 49.5518 390.274 49.4476 389.799 49.429C389.351 49.4114 388.936 49.4796 388.556 49.6336C388.178 49.783 387.903 49.9904 387.729 50.2557C387.466 50.6584 387.694 50.9606 388.414 51.1626L389.774 51.5116C390.531 51.715 390.996 51.9773 391.167 52.2985C391.338 52.6196 391.247 53.0501 390.894 53.59C390.446 54.2763 389.739 54.8187 388.773 55.2172C387.809 55.6111 386.779 55.7865 385.681 55.7434C384.6 55.7009 383.863 55.4608 383.472 55.023C383.088 54.5809 383.088 54.0107 383.472 53.3125L385.479 53.3913C385.321 53.7277 385.333 53.991 385.517 54.1812C385.706 54.3717 386.058 54.477 386.571 54.4972C387.068 54.5167 387.509 54.4543 387.895 54.3099C388.289 54.1611 388.574 53.9517 388.751 53.6818C388.888 53.4713 388.907 53.3008 388.808 53.1701C388.717 53.0352 388.491 52.9137 388.13 52.8056L386.751 52.4347C385.346 52.0557 384.99 51.3354 385.684 50.2739Z" fill="white" fill-opacity="0.64"/>
<path d="M310.652 65.4501L314.373 65.5963L312.65 68.2332L315.173 68.3323L313.638 70.6811L311.115 70.5819L307.537 76.0587C306.974 76.9199 307.228 77.3715 308.299 77.4136C308.647 77.4272 308.96 77.4213 309.238 77.3957L307.738 79.6911C307.249 79.7594 306.631 79.7789 305.883 79.7496C304.278 79.6865 303.289 79.3994 302.917 78.8884C302.554 78.3777 302.737 77.5637 303.467 76.4463L307.394 70.4357L305.47 70.3601L307.005 68.0114L308.929 68.087L310.652 65.4501ZM321.616 78.9552C319.713 79.9608 317.721 80.4227 315.639 80.3409C313.558 80.2592 312.256 79.6642 311.735 78.556C311.213 77.4478 311.561 75.9613 312.779 74.0965C313.984 72.2532 315.544 70.8253 317.46 69.8129C319.39 68.7937 321.382 68.3245 323.438 68.4052C325.502 68.4863 326.797 69.0847 327.323 70.2004C327.854 71.3089 327.517 72.7849 326.312 74.6283C325.089 76.5001 323.524 77.9424 321.616 78.9552ZM317.195 77.9602C318.112 77.9962 319.043 77.7116 319.988 77.1063C320.932 76.501 321.777 75.629 322.521 74.4902C323.255 73.3657 323.562 72.4762 323.441 71.8217C323.319 71.1673 322.8 70.822 321.883 70.786C320.965 70.7499 320.027 71.0379 319.07 71.65C318.121 72.2624 317.279 73.1309 316.544 74.2554C315.8 75.3942 315.491 76.2873 315.617 76.9346C315.743 77.582 316.269 77.9238 317.195 77.9602ZM336.941 82.4262L335.144 82.3556L336.037 80.989C334.097 80.8106 332.812 80.3039 332.181 79.4688C331.563 78.6269 331.678 77.551 332.525 76.2411L336.17 76.3843C335.85 76.9411 335.821 77.4182 336.084 77.8154C336.348 78.2127 336.86 78.4627 337.62 78.5656L340.341 74.402L339.164 74.082C337.822 73.7227 336.984 73.1642 336.652 72.4065C336.332 71.642 336.535 70.7047 337.26 69.5944C338.116 68.2848 339.335 67.2523 340.918 66.4969C342.514 65.7347 344.309 65.3271 346.305 65.2741L347.26 63.8114L349.057 63.882L348.094 65.3553C349.79 65.5606 350.904 66.0899 351.435 66.9429C351.98 67.7893 351.863 68.8286 351.084 70.0609L347.542 69.9217C347.855 69.4157 347.914 68.9654 347.719 68.5708C347.523 68.1762 347.111 67.9265 346.483 67.8215L343.881 71.8036L345.098 72.0814C347.97 72.8074 348.657 74.3163 347.159 76.6081C346.276 77.9603 345.023 79.0244 343.401 79.8001C341.792 80.5691 339.938 80.9854 337.84 81.049L336.941 82.4262ZM343.33 76.808C343.669 76.2884 343.727 75.86 343.503 75.5227C343.279 75.1854 342.766 74.9243 341.963 74.7395L339.41 78.6469C340.27 78.6369 341.046 78.4702 341.736 78.147C342.427 77.8237 342.958 77.3774 343.33 76.808ZM341.117 69.4722C340.494 70.4259 340.884 71.0763 342.287 71.4234L344.693 67.7402C343.973 67.7484 343.277 67.9145 342.603 68.2384C341.943 68.5556 341.448 68.9668 341.117 69.4722ZM351.251 81.4883L359.384 69.0401L359.308 69.0371L352.847 71.5645L354.744 68.6607L361.304 66.0824L365.127 66.2326L355.061 81.638L351.251 81.4883ZM373.023 80.4713C370.763 81.8643 368.477 82.5155 366.166 82.4247C363.855 82.3339 362.507 81.5436 362.121 80.0539C361.74 78.557 362.366 76.5595 363.998 74.0613C365.621 71.5773 367.562 69.6461 369.822 68.2676C372.095 66.8823 374.383 66.2349 376.685 66.3254C378.987 66.4158 380.334 67.2024 380.724 68.685C381.115 70.1677 380.499 72.151 378.876 74.6349C377.248 77.1259 375.297 79.0714 373.023 80.4713ZM366.196 78.2977C366.197 79.2833 366.75 79.7977 367.854 79.8411C368.959 79.8845 370.132 79.4415 371.376 78.5122C372.624 77.5757 373.817 76.2356 374.957 74.4919C376.087 72.7624 376.647 71.412 376.637 70.4407C376.64 69.4626 376.093 68.952 374.997 68.9089C373.901 68.8659 372.727 69.3089 371.476 70.2379C370.224 71.1669 369.035 72.4926 367.91 74.215C366.775 75.9516 366.204 77.3125 366.196 78.2977ZM379.58 82.2181C378.963 82.5369 378.369 82.6851 377.8 82.6628C377.231 82.6404 376.856 82.4541 376.675 82.1039C376.494 81.7537 376.56 81.3402 376.871 80.8633C377.183 80.3865 377.648 79.9886 378.265 79.6698C378.883 79.351 379.477 79.2028 380.046 79.2251C380.615 79.2475 380.99 79.4338 381.171 79.784C381.352 80.1342 381.286 80.5477 380.975 81.0246C380.663 81.5014 380.198 81.8993 379.58 82.2181ZM396.267 81.3845C394.006 82.7776 391.72 83.4287 389.409 83.3379C387.099 83.2471 385.75 82.4568 385.364 80.9671C384.983 79.4702 385.609 77.4727 387.241 74.9745C388.864 72.4906 390.805 70.5593 393.065 69.1808C395.338 67.7955 397.626 67.1481 399.928 67.2386C402.231 67.329 403.577 68.1156 403.968 69.5982C404.358 71.0809 403.742 73.0642 402.119 75.5481C400.491 78.0392 398.541 79.9846 396.267 81.3845ZM389.44 79.2109C389.44 80.1965 389.993 80.7109 391.097 80.7543C392.202 80.7977 393.376 80.3547 394.619 79.4254C395.867 78.4889 397.061 77.1488 398.2 75.4051C399.33 73.6756 399.89 72.3252 399.88 71.3539C399.883 70.3758 399.336 69.8652 398.24 69.8222C397.144 69.7791 395.971 70.2221 394.719 71.1511C393.467 72.0801 392.278 73.4058 391.153 75.1282C390.018 76.8648 389.447 78.2257 389.44 79.2109ZM413.266 82.0524C411.005 83.4455 408.719 84.0966 406.408 84.0058C404.098 83.915 402.749 83.1247 402.363 81.635C401.982 80.1381 402.608 78.1406 404.24 75.6424C405.863 73.1585 407.804 71.2272 410.064 69.8487C412.338 68.4634 414.625 67.816 416.927 67.9065C419.23 67.9969 420.576 68.7835 420.967 70.2661C421.357 71.7488 420.741 73.7321 419.118 76.216C417.49 78.7071 415.54 80.6525 413.266 82.0524ZM406.439 79.8788C406.439 80.8644 406.992 81.3788 408.096 81.4222C409.201 81.4656 410.375 81.0226 411.618 80.0933C412.866 79.1568 414.06 77.8167 415.199 76.073C416.329 74.3435 416.889 72.9931 416.879 72.0218C416.882 71.0437 416.335 70.5331 415.239 70.4901C414.144 70.447 412.97 70.89 411.718 71.819C410.466 72.748 409.277 74.0737 408.152 75.7961C407.017 77.5327 406.446 78.8936 406.439 79.8788Z" fill="white"/>
</g>
</g>
<defs>
<filter id="filter0_bdddddd_1_216" x="-2.92805" y="-27.311" width="284.865" height="266.84" filterUnits="userSpaceOnUse" color-interpolation-filters="sRGB">
<feFlood flood-opacity="0" result="BackgroundImageFix"/>
<feGaussianBlur in="BackgroundImageFix" stdDeviation="18.6555"/>
<feComposite in2="SourceAlpha" operator="in" result="effect1_backgroundBlur_1_216"/>
<feColorMatrix in="SourceAlpha" type="matrix" values="0 0 0 0 0 0 0 0 0 0 0 0 0 0 0 0 0 0 127 0" result="hardAlpha"/>
<feOffset dy="1.72736"/>
<feGaussianBlur stdDeviation="1.46826"/>
<feColorMatrix type="matrix" values="0 0 0 0 0 0 0 0 0 0 0 0 0 0 0 0 0 0 0.0385185 0"/>
<feBlend mode="normal" in2="effect1_backgroundBlur_1_216" result="effect2_dropShadow_1_216"/>
<feColorMatrix in="SourceAlpha" type="matrix" values="0 0 0 0 0 0 0 0 0 0 0 0 0 0 0 0 0 0 127 0" result="hardAlpha"/>
<feOffset dy="7.60039"/>
<feGaussianBlur stdDeviation="3.04016"/>
<feColorMatrix type="matrix" values="0 0 0 0 0 0 0 0 0 0 0 0 0 0 0 0 0 0 0.0628148 0"/>
<feBlend mode="normal" in2="effect2_dropShadow_1_216" result="effect3_dropShadow_1_216"/>
<feColorMatrix in="SourceAlpha" type="matrix" values="0 0 0 0 0 0 0 0 0 0 0 0 0 0 0 0 0 0 127 0" result="hardAlpha"/>
<feOffset dy="18.6555"/>
<feGaussianBlur stdDeviation="6.06304"/>
<feColorMatrix type="matrix" values="0 0 0 0 0 0 0 0 0 0 0 0 0 0 0 0 0 0 0.08 0"/>
<feBlend mode="normal" in2="effect3_dropShadow_1_216" result="effect4_dropShadow_1_216"/>
<feColorMatrix in="SourceAlpha" type="matrix" values="0 0 0 0 0 0 0 0 0 0 0 0 0 0 0 0 0 0 127 0" result="hardAlpha"/>
<feOffset dy="35.9291"/>
<feGaussianBlur stdDeviation="11.8842"/>
<feColorMatrix type="matrix" values="0 0 0 0 0 0 0 0 0 0 0 0 0 0 0 0 0 0 0.0971852 0"/>
<feBlend mode="normal" in2="effect4_dropShadow_1_216" result="effect5_dropShadow_1_216"/>
<feColorMatrix in="SourceAlpha" type="matrix" values="0 0 0 0 0 0 0 0 0 0 0 0 0 0 0 0 0 0 127 0" result="hardAlpha"/>
<feOffset dy="60.4576"/>
<feGaussianBlur stdDeviation="21.8511"/>
<feColorMatrix type="matrix" values="0 0 0 0 0 0 0 0 0 0 0 0 0 0 0 0 0 0 0.121481 0"/>
<feBlend mode="normal" in2="effect5_dropShadow_1_216" result="effect6_dropShadow_1_216"/>
<feColorMatrix in="SourceAlpha" type="matrix" values="0 0 0 0 0 0 0 0 0 0 0 0 0 0 0 0 0 0 127 0" result="hardAlpha"/>
<feOffset dy="93.2775"/>
<feGaussianBlur stdDeviation="37.311"/>
<feColorMatrix type="matrix" values="0 0 0 0 0 0 0 0 0 0 0 0 0 0 0 0 0 0 0.16 0"/>
<feBlend mode="normal" in2="effect6_dropShadow_1_216" result="effect7_dropShadow_1_216"/>
<feBlend mode="normal" in="SourceGraphic" in2="effect7_dropShadow_1_216" result="shape"/>
</filter>
<filter id="filter1_bdddddd_1_216" x="94.5644" y="-23.0996" width="300.152" height="281.896" filterUnits="userSpaceOnUse" color-interpolation-filters="sRGB">
<feFlood flood-opacity="0" result="BackgroundImageFix"/>
<feGaussianBlur in="BackgroundImageFix" stdDeviation="18.6555"/>
<feComposite in2="SourceAlpha" operator="in" result="effect1_backgroundBlur_1_216"/>
<feColorMatrix in="SourceAlpha" type="matrix" values="0 0 0 0 0 0 0 0 0 0 0 0 0 0 0 0 0 0 127 0" result="hardAlpha"/>
<feOffset dy="1.72736"/>
<feGaussianBlur stdDeviation="1.46826"/>
<feColorMatrix type="matrix" values="0 0 0 0 0 0 0 0 0 0 0 0 0 0 0 0 0 0 0.0385185 0"/>
<feBlend mode="normal" in2="effect1_backgroundBlur_1_216" result="effect2_dropShadow_1_216"/>
<feColorMatrix in="SourceAlpha" type="matrix" values="0 0 0 0 0 0 0 0 0 0 0 0 0 0 0 0 0 0 127 0" result="hardAlpha"/>
<feOffset dy="7.60039"/>
<feGaussianBlur stdDeviation="3.04016"/>
<feColorMatrix type="matrix" values="0 0 0 0 0 0 0 0 0 0 0 0 0 0 0 0 0 0 0.0628148 0"/>
<feBlend mode="normal" in2="effect2_dropShadow_1_216" result="effect3_dropShadow_1_216"/>
<feColorMatrix in="SourceAlpha" type="matrix" values="0 0 0 0 0 0 0 0 0 0 0 0 0 0 0 0 0 0 127 0" result="hardAlpha"/>
<feOffset dy="18.6555"/>
<feGaussianBlur stdDeviation="6.06304"/>
<feColorMatrix type="matrix" values="0 0 0 0 0 0 0 0 0 0 0 0 0 0 0 0 0 0 0.08 0"/>
<feBlend mode="normal" in2="effect3_dropShadow_1_216" result="effect4_dropShadow_1_216"/>
<feColorMatrix in="SourceAlpha" type="matrix" values="0 0 0 0 0 0 0 0 0 0 0 0 0 0 0 0 0 0 127 0" result="hardAlpha"/>
<feOffset dy="35.9291"/>
<feGaussianBlur stdDeviation="11.8842"/>
<feColorMatrix type="matrix" values="0 0 0 0 0 0 0 0 0 0 0 0 0 0 0 0 0 0 0.0971852 0"/>
<feBlend mode="normal" in2="effect4_dropShadow_1_216" result="effect5_dropShadow_1_216"/>
<feColorMatrix in="SourceAlpha" type="matrix" values="0 0 0 0 0 0 0 0 0 0 0 0 0 0 0 0 0 0 127 0" result="hardAlpha"/>
<feOffset dy="60.4576"/>
<feGaussianBlur stdDeviation="21.8511"/>
<feColorMatrix type="matrix" values="0 0 0 0 0 0 0 0 0 0 0 0 0 0 0 0 0 0 0.121481 0"/>
<feBlend mode="normal" in2="effect5_dropShadow_1_216" result="effect6_dropShadow_1_216"/>
<feColorMatrix in="SourceAlpha" type="matrix" values="0 0 0 0 0 0 0 0 0 0 0 0 0 0 0 0 0 0 127 0" result="hardAlpha"/>
<feOffset dy="93.2775"/>
<feGaussianBlur stdDeviation="37.311"/>
<feColorMatrix type="matrix" values="0 0 0 0 0 0 0 0 0 0 0 0 0 0 0 0 0 0 0.16 0"/>
<feBlend mode="normal" in2="effect6_dropShadow_1_216" result="effect7_dropShadow_1_216"/>
<feBlend mode="normal" in="SourceGraphic" in2="effect7_dropShadow_1_216" result="shape"/>
</filter>
<filter id="filter2_bdddd_1_216" x="236.579" y="-4.67692" width="331.841" height="232.161" filterUnits="userSpaceOnUse" color-interpolation-filters="sRGB">
<feFlood flood-opacity="0" result="BackgroundImageFix"/>
<feGaussianBlur in="BackgroundImageFix" stdDeviation="11.6597"/>
<feComposite in2="SourceAlpha" operator="in" result="effect1_backgroundBlur_1_216"/>
<feColorMatrix in="SourceAlpha" type="matrix" values="0 0 0 0 0 0 0 0 0 0 0 0 0 0 0 0 0 0 127 0" result="hardAlpha"/>
<feOffset dx="1.27905" dy="2.46266"/>
<feGaussianBlur stdDeviation="2.15704"/>
<feColorMatrix type="matrix" values="0 0 0 0 0.172549 0 0 0 0 0.729412 0 0 0 0 0.294118 0 0 0 0.01625 0"/>
<feBlend mode="normal" in2="effect1_backgroundBlur_1_216" result="effect2_dropShadow_1_216"/>
<feColorMatrix in="SourceAlpha" type="matrix" values="0 0 0 0 0 0 0 0 0 0 0 0 0 0 0 0 0 0 127 0" result="hardAlpha"/>
<feOffset dx="5.8471" dy="11.2579"/>
<feGaussianBlur stdDeviation="6.06304"/>
<feColorMatrix type="matrix" values="0 0 0 0 0.172549 0 0 0 0 0.729412 0 0 0 0 0.294118 0 0 0 0.025 0"/>
<feBlend mode="normal" in2="effect2_dropShadow_1_216" result="effect3_dropShadow_1_216"/>
<feColorMatrix in="SourceAlpha" type="matrix" values="0 0 0 0 0 0 0 0 0 0 0 0 0 0 0 0 0 0 127 0" result="hardAlpha"/>
<feOffset dx="14.8005" dy="28.4965"/>
<feGaussianBlur stdDeviation="16.2653"/>
<feColorMatrix type="matrix" values="0 0 0 0 0.172549 0 0 0 0 0.729412 0 0 0 0 0.294118 0 0 0 0.03375 0"/>
<feBlend mode="normal" in2="effect3_dropShadow_1_216" result="effect4_dropShadow_1_216"/>
<feColorMatrix in="SourceAlpha" type="matrix" values="0 0 0 0 0 0 0 0 0 0 0 0 0 0 0 0 0 0 127 0" result="hardAlpha"/>
<feOffset dx="29.2355" dy="56.2893"/>
<feGaussianBlur stdDeviation="37.311"/>
<feColorMatrix type="matrix" values="0 0 0 0 0.172549 0 0 0 0 0.729412 0 0 0 0 0.294118 0 0 0 0.05 0"/>
<feBlend mode="normal" in2="effect4_dropShadow_1_216" result="effect5_dropShadow_1_216"/>
<feBlend mode="normal" in="SourceGraphic" in2="effect5_dropShadow_1_216" result="shape"/>
</filter>
<clipPath id="clip0_1_216">
<path d="M95.9045 30.7302C103.385 19.2812 120.528 10.4353 134.193 10.9722L198.036 13.4806C203.161 13.6819 205.041 17.3256 202.236 21.619L174.639 63.8556C171.834 68.149 165.405 71.4662 160.281 71.2649L80.9729 68.1489C75.8483 67.9475 73.968 64.3038 76.7733 60.0105L95.9045 30.7302Z" fill="white"/>
</clipPath>
<clipPath id="clip1_1_216">
<rect width="103.538" height="86.7481" rx="9.28612" transform="matrix(0.999229 0.0392598 -0.546979 0.837146 216.636 14.2114)" fill="white"/>
</clipPath>
<clipPath id="clip2_1_216">
<path d="M324.335 26.4163C327.14 22.1229 333.569 18.8057 338.693 19.007L439.819 22.9802C453.484 23.5172 458.498 33.2337 451.018 44.6827L422.192 88.7994C419.387 93.0928 412.959 96.41 407.834 96.2087L287.473 91.4797C284.431 91.3602 283.315 89.1973 284.98 86.6489L324.335 26.4163Z" fill="white"/>
</clipPath>
</defs>
</svg>
