<svg width="157" height="154" viewBox="0 0 157 154" fill="none" xmlns="http://www.w3.org/2000/svg">
<g filter="url(#filter0_bd_1_38)">
<ellipse cx="59.0303" cy="59.3269" rx="59.0303" ry="59.3269" transform="matrix(0.987688 0.156434 -0.25342 0.967356 31.0693 1)" fill="url(#paint0_radial_1_38)" fill-opacity="0.15" shape-rendering="crispEdges"/>
</g>
<g filter="url(#filter1_bdi_1_38)">
<circle cx="52.7644" cy="52.7644" r="52.7644" transform="matrix(0.987688 0.156434 -0.25342 0.967356 35.6391 8.62506)" fill="url(#paint1_radial_1_38)"/>
</g>
<g opacity="0.5" filter="url(#filter2_bdi_1_38)">
<circle cx="52.7644" cy="52.7644" r="52.7644" transform="matrix(0.987688 0.156434 -0.25342 0.967356 35.6391 8.62506)" fill="url(#paint2_linear_1_38)" fill-opacity="0.15" shape-rendering="crispEdges"/>
</g>
<g style="mix-blend-mode:hard-light" filter="url(#filter3_dd_1_38)">
<path d="M93.1642 68.3488C92.3085 68.3152 91.7246 67.6528 91.8078 66.811C92.2974 61.8057 90.5088 57.2134 86.898 54.1938C86.2441 53.6428 86.2728 52.6162 86.9614 51.8896C87.65 51.163 88.7287 51.0226 89.3827 51.5736C93.6841 55.1913 95.8011 60.6644 95.2324 66.603C95.1349 67.5127 94.2933 68.3018 93.3492 68.3561C93.2798 68.3534 93.2336 68.3516 93.1642 68.3488Z" fill="url(#paint3_linear_1_38)" fill-opacity="0.5"/>
<path d="M54.7032 66.9517C54.657 66.9499 54.5876 66.9472 54.5414 66.9454C53.6353 66.8184 53.1356 65.9766 53.418 65.0741C55.2819 59.1864 59.5941 53.9659 65.2882 50.7181C66.1374 50.2262 67.1633 50.4492 67.5432 51.195C67.9184 51.9634 67.5197 52.9755 66.6704 53.4674C61.8998 56.2033 58.2537 60.5822 56.7049 65.523C56.432 66.3801 55.5589 66.9853 54.7032 66.9517Z" fill="url(#paint4_linear_1_38)" fill-opacity="0.5"/>
<path d="M79.0832 86.9116C75.9584 88.1363 72.7632 88.696 69.5718 88.5706C66.2415 88.4397 63.2251 87.5904 60.5735 86.0017C59.8217 85.5839 59.7069 84.5744 60.2941 83.7753C60.8582 82.9753 61.9423 82.6981 62.6941 83.1159C63.9992 83.898 65.4442 84.4573 66.9551 84.8135C68.9972 85.3049 71.1664 85.4129 73.37 85.1341C74.9997 84.9241 76.6489 84.5093 78.2252 83.886C79.1616 83.5346 80.1127 83.8917 80.307 84.7443C80.5524 85.5762 80.0196 86.5601 79.0832 86.9116Z" fill="url(#paint5_linear_1_38)" fill-opacity="0.5"/>
<path d="M79.0367 43.3102C75.452 43.1694 71.9166 45.9082 71.1758 49.4419C70.435 52.9757 72.7506 55.9443 76.3584 56.0861C79.9661 56.2278 83.4784 53.4881 84.2193 49.9544C84.9601 46.4207 82.6444 43.452 79.0367 43.3102Z" fill="url(#paint6_linear_1_38)"/>
<path d="M57.2153 69.5401C53.6307 69.3993 50.0952 72.1381 49.3544 75.6718C48.6136 79.2056 50.9292 82.1742 54.537 82.316C58.1448 82.4577 61.6571 79.718 62.3979 76.1843C63.1387 72.6506 60.8 69.681 57.2153 69.5401Z" fill="url(#paint7_linear_1_38)"/>
<path d="M89.3619 70.803C85.7773 70.6621 82.2418 73.4009 81.501 76.9346C80.7602 80.4684 83.0758 83.437 86.6836 83.5788C90.2914 83.7205 93.8037 80.9809 94.5445 77.4471C95.2853 73.9134 92.9697 70.9447 89.3619 70.803Z" fill="url(#paint8_linear_1_38)"/>
</g>
<g style="mix-blend-mode:hard-light" filter="url(#filter4_dd_1_38)">
<path d="M93.1642 68.3488C92.3085 68.3152 91.7246 67.6528 91.8078 66.811C92.2974 61.8057 90.5088 57.2134 86.898 54.1938C86.2441 53.6428 86.2728 52.6162 86.9614 51.8896C87.65 51.163 88.7287 51.0226 89.3827 51.5736C93.6841 55.1913 95.8011 60.6644 95.2324 66.603C95.1349 67.5127 94.2933 68.3018 93.3492 68.3561C93.2798 68.3534 93.2336 68.3516 93.1642 68.3488Z" fill="url(#paint9_linear_1_38)" fill-opacity="0.5"/>
<path d="M54.7032 66.9517C54.657 66.9499 54.5876 66.9472 54.5414 66.9454C53.6353 66.8184 53.1356 65.9766 53.418 65.0741C55.2819 59.1864 59.5941 53.9659 65.2882 50.7181C66.1374 50.2262 67.1633 50.4492 67.5432 51.195C67.9184 51.9634 67.5197 52.9755 66.6704 53.4674C61.8998 56.2033 58.2537 60.5822 56.7049 65.523C56.432 66.3801 55.5589 66.9853 54.7032 66.9517Z" fill="url(#paint10_linear_1_38)" fill-opacity="0.5"/>
<path d="M79.0832 86.9116C75.9584 88.1363 72.7632 88.696 69.5718 88.5706C66.2415 88.4397 63.2251 87.5904 60.5735 86.0017C59.8217 85.5839 59.7069 84.5744 60.2941 83.7753C60.8582 82.9753 61.9423 82.6981 62.6941 83.1159C63.9992 83.898 65.4442 84.4573 66.9551 84.8135C68.9972 85.3049 71.1664 85.4129 73.37 85.1341C74.9997 84.9241 76.6489 84.5093 78.2252 83.886C79.1616 83.5346 80.1127 83.8917 80.307 84.7443C80.5524 85.5762 80.0196 86.5601 79.0832 86.9116Z" fill="url(#paint11_linear_1_38)" fill-opacity="0.5"/>
<path d="M79.0367 43.3102C75.452 43.1694 71.9166 45.9082 71.1758 49.4419C70.435 52.9757 72.7506 55.9443 76.3584 56.0861C79.9661 56.2278 83.4784 53.4881 84.2193 49.9544C84.9601 46.4207 82.6444 43.452 79.0367 43.3102Z" fill="url(#paint12_linear_1_38)"/>
<path d="M57.2153 69.5401C53.6307 69.3993 50.0952 72.1381 49.3544 75.6718C48.6136 79.2056 50.9292 82.1742 54.537 82.316C58.1448 82.4577 61.6571 79.718 62.3979 76.1843C63.1387 72.6506 60.8 69.681 57.2153 69.5401Z" fill="url(#paint13_linear_1_38)"/>
<path d="M89.3619 70.803C85.7773 70.6621 82.2418 73.4009 81.501 76.9346C80.7602 80.4684 83.0758 83.437 86.6836 83.5788C90.2914 83.7205 93.8037 80.9809 94.5445 77.4471C95.2853 73.9134 92.9697 70.9447 89.3619 70.803Z" fill="url(#paint14_linear_1_38)"/>
</g>
<defs>
<filter id="filter0_bd_1_38" x="-7.53695" y="-12.1622" width="164.472" height="165.347" filterUnits="userSpaceOnUse" color-interpolation-filters="sRGB">
<feFlood flood-opacity="0" result="BackgroundImageFix"/>
<feGaussianBlur in="BackgroundImageFix" stdDeviation="10.8249"/>
<feComposite in2="SourceAlpha" operator="in" result="effect1_backgroundBlur_1_38"/>
<feColorMatrix in="SourceAlpha" type="matrix" values="0 0 0 0 0 0 0 0 0 0 0 0 0 0 0 0 0 0 127 0" result="hardAlpha"/>
<feOffset dx="4.32995" dy="9.38155"/>
<feGaussianBlur stdDeviation="9.02072"/>
<feComposite in2="hardAlpha" operator="out"/>
<feColorMatrix type="matrix" values="0 0 0 0 0 0 0 0 0 0 0 0 0 0 0 0 0 0 0.1 0"/>
<feBlend mode="normal" in2="effect1_backgroundBlur_1_38" result="effect2_dropShadow_1_38"/>
<feBlend mode="normal" in="SourceGraphic" in2="effect2_dropShadow_1_38" result="shape"/>
</filter>
<filter id="filter1_bdi_1_38" x="-1.08328" y="-5.44138" width="150.931" height="150.333" filterUnits="userSpaceOnUse" color-interpolation-filters="sRGB">
<feFlood flood-opacity="0" result="BackgroundImageFix"/>
<feGaussianBlur in="BackgroundImageFix" stdDeviation="10.8249"/>
<feComposite in2="SourceAlpha" operator="in" result="effect1_backgroundBlur_1_38"/>
<feColorMatrix in="SourceAlpha" type="matrix" values="0 0 0 0 0 0 0 0 0 0 0 0 0 0 0 0 0 0 127 0" result="hardAlpha"/>
<feOffset dy="13.7115"/>
<feGaussianBlur stdDeviation="5.77326"/>
<feComposite in2="hardAlpha" operator="out"/>
<feColorMatrix type="matrix" values="0 0 0 0 0 0 0 0 0 0.0458333 0 0 0 0 0.00976776 0 0 0 0.15 0"/>
<feBlend mode="normal" in2="effect1_backgroundBlur_1_38" result="effect2_dropShadow_1_38"/>
<feBlend mode="normal" in="SourceGraphic" in2="effect2_dropShadow_1_38" result="shape"/>
<feColorMatrix in="SourceAlpha" type="matrix" values="0 0 0 0 0 0 0 0 0 0 0 0 0 0 0 0 0 0 127 0" result="hardAlpha"/>
<feOffset dy="2.88663"/>
<feGaussianBlur stdDeviation="20.9281"/>
<feComposite in2="hardAlpha" operator="arithmetic" k2="-1" k3="1"/>
<feColorMatrix type="matrix" values="0 0 0 0 1 0 0 0 0 1 0 0 0 0 1 0 0 0 0.25 0"/>
<feBlend mode="normal" in2="shape" result="effect3_innerShadow_1_38"/>
</filter>
<filter id="filter2_bdi_1_38" x="-1.08328" y="-5.44138" width="150.931" height="150.333" filterUnits="userSpaceOnUse" color-interpolation-filters="sRGB">
<feFlood flood-opacity="0" result="BackgroundImageFix"/>
<feGaussianBlur in="BackgroundImageFix" stdDeviation="10.8249"/>
<feComposite in2="SourceAlpha" operator="in" result="effect1_backgroundBlur_1_38"/>
<feColorMatrix in="SourceAlpha" type="matrix" values="0 0 0 0 0 0 0 0 0 0 0 0 0 0 0 0 0 0 127 0" result="hardAlpha"/>
<feOffset dy="13.7115"/>
<feGaussianBlur stdDeviation="5.77326"/>
<feComposite in2="hardAlpha" operator="out"/>
<feColorMatrix type="matrix" values="0 0 0 0 0 0 0 0 0 0.0458333 0 0 0 0 0.00976776 0 0 0 0.15 0"/>
<feBlend mode="normal" in2="effect1_backgroundBlur_1_38" result="effect2_dropShadow_1_38"/>
<feBlend mode="normal" in="SourceGraphic" in2="effect2_dropShadow_1_38" result="shape"/>
<feColorMatrix in="SourceAlpha" type="matrix" values="0 0 0 0 0 0 0 0 0 0 0 0 0 0 0 0 0 0 127 0" result="hardAlpha"/>
<feOffset dy="2.88663"/>
<feGaussianBlur stdDeviation="20.9281"/>
<feComposite in2="hardAlpha" operator="arithmetic" k2="-1" k3="1"/>
<feColorMatrix type="matrix" values="0 0 0 0 1 0 0 0 0 1 0 0 0 0 1 0 0 0 0.25 0"/>
<feBlend mode="normal" in2="shape" result="effect3_innerShadow_1_38"/>
</filter>
<filter id="filter3_dd_1_38" x="27.5667" y="20.9337" width="109.613" height="108.789" filterUnits="userSpaceOnUse" color-interpolation-filters="sRGB">
<feFlood flood-opacity="0" result="BackgroundImageFix"/>
<feColorMatrix in="SourceAlpha" type="matrix" values="0 0 0 0 0 0 0 0 0 0 0 0 0 0 0 0 0 0 127 0" result="hardAlpha"/>
<feOffset dx="10.1032" dy="9.38155"/>
<feGaussianBlur stdDeviation="15.8765"/>
<feComposite in2="hardAlpha" operator="out"/>
<feColorMatrix type="matrix" values="0 0 0 0 0 0 0 0 0 0 0 0 0 0 0 0 0 0 0.45 0"/>
<feBlend mode="normal" in2="BackgroundImageFix" result="effect1_dropShadow_1_38"/>
<feColorMatrix in="SourceAlpha" type="matrix" values="0 0 0 0 0 0 0 0 0 0 0 0 0 0 0 0 0 0 127 0" result="hardAlpha"/>
<feOffset dx="2.88663" dy="6.49492"/>
<feGaussianBlur stdDeviation="5.0516"/>
<feComposite in2="hardAlpha" operator="out"/>
<feColorMatrix type="matrix" values="0 0 0 0 0 0 0 0 0 0 0 0 0 0 0 0 0 0 0.08 0"/>
<feBlend mode="normal" in2="effect1_dropShadow_1_38" result="effect2_dropShadow_1_38"/>
<feBlend mode="normal" in="SourceGraphic" in2="effect2_dropShadow_1_38" result="shape"/>
</filter>
<filter id="filter4_dd_1_38" x="27.5667" y="20.9337" width="109.613" height="108.789" filterUnits="userSpaceOnUse" color-interpolation-filters="sRGB">
<feFlood flood-opacity="0" result="BackgroundImageFix"/>
<feColorMatrix in="SourceAlpha" type="matrix" values="0 0 0 0 0 0 0 0 0 0 0 0 0 0 0 0 0 0 127 0" result="hardAlpha"/>
<feOffset dx="10.1032" dy="9.38155"/>
<feGaussianBlur stdDeviation="15.8765"/>
<feComposite in2="hardAlpha" operator="out"/>
<feColorMatrix type="matrix" values="0 0 0 0 0 0 0 0 0 0 0 0 0 0 0 0 0 0 0.45 0"/>
<feBlend mode="normal" in2="BackgroundImageFix" result="effect1_dropShadow_1_38"/>
<feColorMatrix in="SourceAlpha" type="matrix" values="0 0 0 0 0 0 0 0 0 0 0 0 0 0 0 0 0 0 127 0" result="hardAlpha"/>
<feOffset dx="2.88663" dy="6.49492"/>
<feGaussianBlur stdDeviation="5.0516"/>
<feComposite in2="hardAlpha" operator="out"/>
<feColorMatrix type="matrix" values="0 0 0 0 0 0 0 0 0 0 0 0 0 0 0 0 0 0 0.08 0"/>
<feBlend mode="normal" in2="effect1_dropShadow_1_38" result="effect2_dropShadow_1_38"/>
<feBlend mode="normal" in="SourceGraphic" in2="effect2_dropShadow_1_38" result="shape"/>
</filter>
<radialGradient id="paint0_radial_1_38" cx="0" cy="0" r="1" gradientUnits="userSpaceOnUse" gradientTransform="translate(66.3262 33.9963) rotate(94.9257) scale(84.9713 84.5528)">
<stop stop-color="#00FF39"/>
<stop offset="0.175595" stop-color="#00D931"/>
<stop offset="1" stop-color="#002909"/>
</radialGradient>
<radialGradient id="paint1_radial_1_38" cx="0" cy="0" r="1" gradientUnits="userSpaceOnUse" gradientTransform="translate(35.6768 19.596) rotate(57.0277) scale(115.49 103.294)">
<stop stop-color="#00FF39"/>
<stop offset="0.41917" stop-color="#00D931"/>
<stop offset="0.653362" stop-color="#01C92D"/>
<stop offset="0.848958" stop-color="#61CC86"/>
<stop offset="0.943654" stop-color="#00FF39"/>
</radialGradient>
<linearGradient id="paint2_linear_1_38" x1="52.7644" y1="0" x2="52.7644" y2="105.529" gradientUnits="userSpaceOnUse">
<stop stop-color="#C4C4C4"/>
<stop offset="1" stop-color="#C4C4C4" stop-opacity="0"/>
</linearGradient>
<linearGradient id="paint3_linear_1_38" x1="92.5931" y1="51.4001" x2="91.929" y2="68.3003" gradientUnits="userSpaceOnUse">
<stop stop-color="white"/>
<stop offset="1" stop-color="#E9FFF4"/>
</linearGradient>
<linearGradient id="paint4_linear_1_38" x1="62.2727" y1="50.2986" x2="61.6077" y2="67.223" gradientUnits="userSpaceOnUse">
<stop stop-color="white"/>
<stop offset="1" stop-color="#E9FFF4"/>
</linearGradient>
<linearGradient id="paint5_linear_1_38" x1="70.5101" y1="83.2588" x2="70.3003" y2="88.5992" gradientUnits="userSpaceOnUse">
<stop stop-color="white"/>
<stop offset="1" stop-color="#E9FFF4"/>
</linearGradient>
<linearGradient id="paint6_linear_1_38" x1="79.0367" y1="43.3102" x2="78.5314" y2="56.1715" gradientUnits="userSpaceOnUse">
<stop stop-color="white"/>
<stop offset="1" stop-color="#E9FFF4"/>
</linearGradient>
<linearGradient id="paint7_linear_1_38" x1="57.2153" y1="69.5401" x2="56.71" y2="82.4014" gradientUnits="userSpaceOnUse">
<stop stop-color="white"/>
<stop offset="1" stop-color="#E9FFF4"/>
</linearGradient>
<linearGradient id="paint8_linear_1_38" x1="89.3619" y1="70.803" x2="88.8566" y2="83.6642" gradientUnits="userSpaceOnUse">
<stop stop-color="white"/>
<stop offset="1" stop-color="#E9FFF4"/>
</linearGradient>
<linearGradient id="paint9_linear_1_38" x1="92.5931" y1="51.4001" x2="91.929" y2="68.3003" gradientUnits="userSpaceOnUse">
<stop stop-color="white"/>
<stop offset="1" stop-color="#E9FFF4"/>
</linearGradient>
<linearGradient id="paint10_linear_1_38" x1="62.2727" y1="50.2986" x2="61.6077" y2="67.223" gradientUnits="userSpaceOnUse">
<stop stop-color="white"/>
<stop offset="1" stop-color="#E9FFF4"/>
</linearGradient>
<linearGradient id="paint11_linear_1_38" x1="70.5101" y1="83.2588" x2="70.3003" y2="88.5992" gradientUnits="userSpaceOnUse">
<stop stop-color="white"/>
<stop offset="1" stop-color="#E9FFF4"/>
</linearGradient>
<linearGradient id="paint12_linear_1_38" x1="79.0367" y1="43.3102" x2="78.5314" y2="56.1715" gradientUnits="userSpaceOnUse">
<stop stop-color="white"/>
<stop offset="1" stop-color="#E9FFF4"/>
</linearGradient>
<linearGradient id="paint13_linear_1_38" x1="57.2153" y1="69.5401" x2="56.71" y2="82.4014" gradientUnits="userSpaceOnUse">
<stop stop-color="white"/>
<stop offset="1" stop-color="#E9FFF4"/>
</linearGradient>
<linearGradient id="paint14_linear_1_38" x1="89.3619" y1="70.803" x2="88.8566" y2="83.6642" gradientUnits="userSpaceOnUse">
<stop stop-color="white"/>
<stop offset="1" stop-color="#E9FFF4"/>
</linearGradient>
</defs>
</svg>
